<svg width="20" height="20" viewBox="0 0 20 20" fill="none" xmlns="http://www.w3.org/2000/svg">
<path d="M10 0.625C8.1458 0.625 6.33324 1.17483 4.79153 2.20497C3.24982 3.23511 2.04821 4.69929 1.33863 6.41234C0.629062 8.1254 0.443406 10.0104 0.805142 11.829C1.16688 13.6475 2.05976 15.318 3.37088 16.6291C4.682 17.9402 6.35246 18.8331 8.17103 19.1949C9.9896 19.5566 11.8746 19.3709 13.5877 18.6614C15.3007 17.9518 16.7649 16.7502 17.795 15.2085C18.8252 13.6668 19.375 11.8542 19.375 10C19.3723 7.51443 18.3837 5.13145 16.6261 3.37389C14.8686 1.61633 12.4856 0.62773 10 0.625ZM10 18.625C8.29414 18.625 6.62658 18.1192 5.20821 17.1714C3.78984 16.2237 2.68435 14.8767 2.03154 13.3006C1.37874 11.7246 1.20793 9.99043 1.54073 8.31735C1.87353 6.64426 2.69498 5.10743 3.90121 3.9012C5.10744 2.69498 6.64426 1.87352 8.31735 1.54073C9.99044 1.20793 11.7246 1.37873 13.3006 2.03154C14.8767 2.68434 16.2237 3.78983 17.1714 5.20821C18.1192 6.62658 18.625 8.29414 18.625 10C18.6225 12.2867 17.713 14.4791 16.0961 16.0961C14.4791 17.713 12.2867 18.6225 10 18.625ZM13.3 12.4759C12.7804 13.1683 12.0562 13.6797 11.2298 13.9376C10.4035 14.1956 9.51692 14.187 8.69571 13.9131C7.87451 13.6393 7.16028 13.114 6.65416 12.4117C6.14805 11.7094 5.87571 10.8657 5.87571 10C5.87571 9.13433 6.14805 8.29061 6.65416 7.58831C7.16028 6.88601 7.87451 6.36073 8.69571 6.08687C9.51692 5.813 10.4035 5.80443 11.2298 6.06237C12.0562 6.32031 12.7804 6.83168 13.3 7.52406C13.3296 7.56346 13.3512 7.6083 13.3635 7.65603C13.3757 7.70376 13.3785 7.75344 13.3716 7.80223C13.3646 7.85103 13.3482 7.89798 13.3231 7.94041C13.298 7.98284 13.2649 8.01992 13.2255 8.04953C13.1861 8.07914 13.1412 8.1007 13.0935 8.11298C13.0458 8.12526 12.9961 8.12802 12.9473 8.12109C12.8985 8.11417 12.8516 8.09771 12.8091 8.07264C12.7667 8.04758 12.7296 8.0144 12.7 7.975C12.275 7.40832 11.6825 6.98972 11.0063 6.77852C10.3302 6.56731 9.60474 6.57419 8.93274 6.79819C8.26073 7.0222 7.67624 7.45196 7.26206 8.0266C6.84788 8.60125 6.625 9.29165 6.625 10C6.625 10.7084 6.84788 11.3988 7.26206 11.9734C7.67624 12.548 8.26073 12.9778 8.93274 13.2018C9.60474 13.4258 10.3302 13.4327 11.0063 13.2215C11.6825 13.0103 12.275 12.5917 12.7 12.025C12.7598 11.9454 12.8488 11.8929 12.9473 11.8789C13.0458 11.8649 13.1459 11.8907 13.2255 11.9505C13.305 12.0103 13.3576 12.0992 13.3716 12.1978C13.3855 12.2963 13.3598 12.3964 13.3 12.4759Z" fill="#DEC5B1"/>
</svg>
